<?xml version="1.0" encoding="UTF-8"?>
<svg version="1.1" xmlns="http://www.w3.org/2000/svg" width="180" height="38">
<path d="M0 0 C59.4 0 118.8 0 180 0 C180 12.54 180 25.08 180 38 C120.6 38 61.2 38 0 38 C0 25.46 0 12.92 0 0 Z " fill="#000000" transform="translate(0,0)"/>
<path d="M0 0 C23.43 0 46.86 0 71 0 C71 12.54 71 25.08 71 38 C47.57 38 24.14 38 0 38 C0 25.46 0 12.92 0 0 Z " fill="#000000" transform="translate(109,0)"/>
<path d="M0 0 C12.54 0 25.08 0 38 0 C38 12.54 38 25.08 38 38 C25.46 38 12.92 38 0 38 C0 25.46 0 12.92 0 0 Z " fill="#FBFBFB" transform="translate(71,0)"/>
<path d="M0 0 C0.495 0.350625 0.99 0.70125 1.5 1.0625 C5.26253942 2.47345228 8.06313686 1.70992614 12 1 C12.33 0.67 12.66 0.34 13 0 C14.66617115 -0.04063832 16.33388095 -0.042721 18 0 C18 0.66 18 1.32 18 2 C18.66 2 19.32 2 20 2 C20 1.34 20 0.68 20 0 C20.66 0 21.32 0 22 0 C21.34 1.98 20.68 3.96 20 6 C13.07 6 6.14 6 -1 6 C-1 1 -1 1 0 0 Z " fill="#D0EBDB" transform="translate(74,14)"/>
<path d="M0 0 C0.33 0.99 0.66 1.98 1 3 C5.29 3.33 9.58 3.66 14 4 C14 4.66 14 5.32 14 6 C6.74 6 -0.52 6 -8 6 C-8 5.67 -8 5.34 -8 5 C-7.236875 4.855625 -6.47375 4.71125 -5.6875 4.5625 C-2.91827092 4.0367406 -2.91827092 4.0367406 0 3 C0 2.01 0 1.02 0 0 Z " fill="#C4C7CC" transform="translate(82,17)"/>
<path d="M0 0 C3.99996286 1.33332095 4.83782337 3.4957827 7 7 C5.8125 9 5.8125 9 4 11 C1.3125 11.25 1.3125 11.25 -1 11 C-0.62875 10.0925 -0.2575 9.185 0.125 8.25 C1.30359299 5.11902985 1.30359299 5.11902985 0.125 2.625 C-0.24625 2.08875 -0.6175 1.5525 -1 1 C-0.67 0.67 -0.34 0.34 0 0 Z " fill="#B4E0C5" transform="translate(100,13)"/>
<path d="M0 0 C0.804375 0.5259375 0.804375 0.5259375 1.625 1.0625 C4.73274763 2.28924249 6.79431703 1.72856431 10 1 C10.33 2.65 10.66 4.3 11 6 C7.04 6 3.08 6 -1 6 C-1 1 -1 1 0 0 Z " fill="#5D6A77" transform="translate(74,14)"/>
<path d="M0 0 C2 2 2 2 2 5 C0.02 5 -1.96 5 -4 5 C-4.33 3.68 -4.66 2.36 -5 1 C-2.625 0.375 -2.625 0.375 0 0 Z " fill="#4A5967" transform="translate(83,15)"/>
<path d="M0 0 C0.33 1.32 0.66 2.64 1 4 C1.99 2.68 2.98 1.36 4 0 C4.33 0.66 4.66 1.32 5 2 C3.8125 4 3.8125 4 2 6 C-0.6875 6.25 -0.6875 6.25 -3 6 C-1.125 1.125 -1.125 1.125 0 0 Z " fill="#CCE9D7" transform="translate(102,18)"/>
<path d="M0 0 C2.0625 0.4375 2.0625 0.4375 4 1 C3.01 1 2.02 1 1 1 C1 1.99 1 2.98 1 4 C1.99 3.67 2.98 3.34 4 3 C4 3.66 4 4.32 4 5 C2.35 5 0.7 5 -1 5 C-1 1 -1 1 0 0 Z " fill="#5FBD8A" transform="translate(86,15)"/>
<path d="M0 0 C0.66 0 1.32 0 2 0 C1.34 1.98 0.68 3.96 0 6 C-0.66 6 -1.32 6 -2 6 C-2.33 4.35 -2.66 2.7 -3 1 C-2.01 1.33 -1.02 1.66 0 2 C0 1.34 0 0.68 0 0 Z " fill="#59BD85" transform="translate(94,14)"/>
</svg>
